<svg width="133" height="48" viewBox="0 0 133 48" fill="none" xmlns="http://www.w3.org/2000/svg">
<path d="M7.11719 24.875C8.24349 24.875 9.06706 24.6081 9.58789 24.0742C10.1152 23.5469 10.3789 22.7331 10.3789 21.6328V8.55664H13.7969V21.6328C13.7969 23.7292 13.1751 25.3633 11.9316 26.5352C10.6882 27.707 9.02474 28.293 6.94141 28.293C5.91276 28.293 5.0013 28.1562 4.20703 27.8828C3.41276 27.6094 2.76497 27.2253 2.26367 26.7305C1.76237 26.2357 1.38477 25.653 1.13086 24.9824C0.876953 24.3118 0.75 23.5664 0.75 22.7461C0.75 21.2552 1.08529 19.6602 1.75586 17.9609L4.75391 19.0254C4.30469 20.3079 4.08008 21.3919 4.08008 22.2773C4.08008 23.0911 4.32747 23.7259 4.82227 24.1816C5.31706 24.6439 6.08203 24.875 7.11719 24.875ZM20.7891 19.5527C20.7044 18.7389 20.5677 18.1465 20.3789 17.7754C20.1901 17.3978 19.9167 17.209 19.5586 17.209C19.2396 17.209 18.9922 17.3652 18.8164 17.6777C18.6471 17.9837 18.5625 18.3743 18.5625 18.8496C18.5625 19.11 18.6439 19.2988 18.8066 19.416C18.9759 19.5332 19.2526 19.5918 19.6367 19.5918C19.9883 19.5918 20.3724 19.5788 20.7891 19.5527ZM20.3203 23H19.1777C18.0384 23 17.1562 22.6712 16.5312 22.0137C15.9062 21.3496 15.5938 20.4056 15.5938 19.1816C15.5938 18.6868 15.6426 18.1986 15.7402 17.7168C15.8379 17.2285 15.9941 16.7565 16.209 16.3008C16.4303 15.8385 16.694 15.4316 17 15.0801C17.306 14.7285 17.6836 14.4486 18.1328 14.2402C18.5885 14.0254 19.0833 13.918 19.6172 13.918C20.3398 13.918 20.9681 14.0612 21.502 14.3477C22.0358 14.6341 22.4622 15.0443 22.7812 15.5781C23.1068 16.1055 23.3542 16.6979 23.5234 17.3555C23.6992 18.0065 23.8197 18.752 23.8848 19.5918H24.5586V23H23.7383C23.4323 24.3346 22.7129 25.4707 21.5801 26.4082C20.4538 27.3522 18.8783 28.1562 16.8535 28.8203L15.3789 25.7441C17.9766 24.9173 19.6237 24.0026 20.3203 23ZM33.7969 7.00391L34.4805 10.3438C32.5208 10.7995 30.6003 11.4961 28.7188 12.4336V12.5312C29.6237 13.332 30.3691 14.0938 30.9551 14.8164C31.5475 15.5326 32.0456 16.291 32.4492 17.0918C32.9115 18.0098 33.3932 18.6576 33.8945 19.0352C34.4023 19.4062 35.0404 19.5918 35.8086 19.5918V23C34.9427 23 34.1061 22.8145 33.2988 22.4434C32.498 22.0723 31.8568 21.5677 31.375 20.9297C30.9193 21.5938 30.2389 22.1048 29.334 22.4629C28.4355 22.821 27.3971 23 26.2188 23H24.5586C24.3958 23 24.2819 22.8665 24.2168 22.5996C24.1452 22.3327 24.1094 21.8932 24.1094 21.2812C24.1094 20.6758 24.1452 20.2428 24.2168 19.9824C24.2819 19.722 24.3958 19.5918 24.5586 19.5918H26.1406C27.0911 19.5918 27.8398 19.4746 28.3867 19.2402C28.9336 19.0059 29.207 18.6836 29.207 18.2734C29.207 17.8242 28.8457 17.235 28.123 16.5059C27.4069 15.7702 26.2513 14.8066 24.6562 13.6152V10.9102C27.6836 8.95703 30.7305 7.65495 33.7969 7.00391ZM47.4883 19.5918C47.8333 19.5918 48.084 19.5007 48.2402 19.3184C48.403 19.1361 48.4844 18.8464 48.4844 18.4492C48.4844 18.0391 48.3607 17.1016 48.1133 15.6367L51.4043 14.9531L51.6289 16.5938C51.7266 17.2708 51.8242 17.7949 51.9219 18.166C52.0195 18.5306 52.1628 18.8268 52.3516 19.0547C52.5404 19.2826 52.7585 19.429 53.0059 19.4941C53.2598 19.5592 53.6081 19.5918 54.0508 19.5918H54.0703V23H54.0508C53.1523 23 52.4232 22.8535 51.8633 22.5605C51.3099 22.2611 50.9518 21.8281 50.7891 21.2617C50.6458 21.7956 50.3203 22.2188 49.8125 22.5312C49.3047 22.8438 48.6927 23 47.9766 23C47.2669 23 46.668 22.8568 46.1797 22.5703C45.6979 22.2839 45.3464 21.8802 45.125 21.3594C44.7018 22.4531 43.7643 23 42.3125 23C40.8607 23 39.9297 22.4466 39.5195 21.3398C39.2201 21.8477 38.7676 22.2513 38.1621 22.5508C37.5566 22.8503 36.8828 23 36.1406 23H35.8086C35.5091 23 35.3594 22.4173 35.3594 21.252C35.3594 20.6595 35.3952 20.2363 35.4668 19.9824C35.5319 19.722 35.6458 19.5918 35.8086 19.5918H36.1406C36.7852 19.5918 37.2572 19.4648 37.5566 19.2109C37.8626 18.9505 38.0449 18.5143 38.1035 17.9023L38.2988 15.5781L41.707 15.8223L41.502 18.2734C41.4238 19.1068 41.7266 19.543 42.4102 19.582C42.7487 19.6016 43.0091 19.5169 43.1914 19.3281C43.3737 19.1328 43.4844 18.8268 43.5234 18.4102L43.6992 16.125L46.6484 16.3203L46.5117 18.3906C46.4531 19.1914 46.7786 19.5918 47.4883 19.5918ZM54.0703 19.5918H62.5371V23H54.0703C53.9141 23 53.8001 22.8796 53.7285 22.6387C53.6569 22.3913 53.6211 21.9421 53.6211 21.291C53.6211 20.64 53.6569 20.194 53.7285 19.9531C53.8001 19.7122 53.9141 19.5918 54.0703 19.5918ZM62.5469 19.5918H71.0137V23H62.5469C62.3906 23 62.2767 22.8796 62.2051 22.6387C62.1335 22.3913 62.0977 21.9421 62.0977 21.291C62.0977 20.64 62.1335 20.194 62.2051 19.9531C62.2767 19.7122 62.3906 19.5918 62.5469 19.5918ZM75.8672 14.0156C76.2969 15.7865 76.5117 17.2188 76.5117 18.3125C76.5117 19.7904 76.0918 20.9427 75.252 21.7695C74.4186 22.5898 73.1198 23 71.3555 23H71.0234C70.8672 23 70.7533 22.8796 70.6816 22.6387C70.61 22.3913 70.5742 21.9421 70.5742 21.291C70.5742 20.64 70.61 20.194 70.6816 19.9531C70.7533 19.7122 70.8672 19.5918 71.0234 19.5918H71.3555C71.987 19.5918 72.446 19.4583 72.7324 19.1914C73.0189 18.918 73.1621 18.4818 73.1621 17.8828C73.1621 17.2839 72.9961 16.2878 72.6641 14.8945L75.8672 14.0156ZM73.2012 11.4668L75.1348 9.54297L77.0586 11.4668L75.1348 13.3906L73.2012 11.4668ZM69.7832 11.4668L71.7168 9.54297L73.6406 11.4668L71.7168 13.3906L69.7832 11.4668Z" fill="#151A23"/>
<path d="M5.91191 40.9941L6.09746 41.8535C5.74264 41.987 5.37643 42.0537 4.99883 42.0537C4.69284 42.0537 4.42265 42.0081 4.18828 41.917C3.9539 41.8258 3.76022 41.6712 3.60722 41.4531C3.45748 41.2318 3.38261 40.9551 3.38261 40.623V35.3105H4.68144V40.4766C4.68144 40.8672 4.90931 41.0625 5.36504 41.0625C5.54733 41.0625 5.72962 41.0397 5.91191 40.9941ZM2.62578 37.752V36.8926H5.90703V37.752H2.62578ZM15.6318 36.6729C16.3317 36.6729 16.8721 36.8307 17.2529 37.1465C17.6338 37.459 17.8242 37.8854 17.8242 38.4258V40.6475C17.8242 40.8363 17.8617 40.9762 17.9365 41.0674C18.0114 41.1553 18.1432 41.1992 18.332 41.1992V42.0049C17.7884 42.0765 17.3506 42.0016 17.0186 41.7803C16.6898 41.5589 16.5254 41.1797 16.5254 40.6426V38.4258C16.5254 37.9342 16.208 37.6885 15.5732 37.6885C14.9352 37.6885 14.6162 37.9342 14.6162 38.4258H13.5029C13.4736 37.8757 13.6445 37.446 14.0156 37.1367C14.39 36.8275 14.9287 36.6729 15.6318 36.6729ZM16.999 40.5059C16.654 41.5378 15.9574 42.0537 14.9092 42.0537C14.4372 42.0537 14.0645 41.9268 13.791 41.6729C13.5208 41.4189 13.3857 41.0658 13.3857 40.6133C13.3857 40.2389 13.4834 39.9167 13.6787 39.6465C13.8773 39.3763 14.1344 39.1777 14.4502 39.0508C14.7659 38.9206 15.1208 38.8555 15.5146 38.8555C16.0062 38.8555 16.5124 38.9303 17.0332 39.0801L16.6182 39.7637C16.3675 39.6986 16.0648 39.666 15.71 39.666C15.3519 39.666 15.0671 39.7327 14.8555 39.8662C14.6439 39.9997 14.5381 40.1852 14.5381 40.4229C14.5381 40.6247 14.6016 40.7809 14.7285 40.8916C14.8555 41.0023 15.0492 41.0576 15.3096 41.0576C15.6025 41.0576 15.8548 40.9909 16.0664 40.8574C16.2812 40.7207 16.4521 40.571 16.5791 40.4082L16.999 40.5059ZM27.7492 36.6729C28.423 36.6729 28.9406 36.8324 29.302 37.1514C29.6665 37.4671 29.8325 37.9066 29.8 38.4697L28.7551 38.4404C28.7551 38.2061 28.6672 38.0238 28.4914 37.8936C28.3156 37.7633 28.0715 37.6982 27.759 37.6982C27.4758 37.6982 27.2528 37.7503 27.09 37.8545C26.9273 37.9587 26.8459 38.1035 26.8459 38.2891C26.8459 38.4421 26.9191 38.5592 27.0656 38.6406C27.2121 38.722 27.4839 38.8083 27.8811 38.8994C28.5646 39.0557 29.0627 39.2624 29.3752 39.5195C29.6909 39.7767 29.8488 40.1006 29.8488 40.4912C29.8488 40.96 29.6519 41.3376 29.258 41.624C28.8674 41.9072 28.3482 42.0488 27.7004 42.0488C27.0135 42.0488 26.4781 41.8877 26.0939 41.5654C25.7131 41.2399 25.5422 40.8005 25.5812 40.2471L26.6213 40.2812C26.6213 40.5221 26.7173 40.7077 26.9094 40.8379C27.1047 40.9681 27.3814 41.0332 27.7395 41.0332C28.0357 41.0332 28.2652 40.9844 28.4279 40.8867C28.5939 40.7891 28.677 40.6523 28.677 40.4766C28.677 40.3236 28.5956 40.2031 28.4328 40.1152C28.27 40.0241 27.982 39.9313 27.5686 39.8369C26.9045 39.6872 26.4227 39.4854 26.1232 39.2314C25.827 38.9743 25.6789 38.6439 25.6789 38.2402C25.6789 37.7585 25.8645 37.3776 26.2355 37.0977C26.6066 36.8145 27.1112 36.6729 27.7492 36.6729ZM40.8969 36.7217H42.5375L40.5404 39.1777L42.7377 42H41.102L39.4076 39.6562H39.0121V42H37.7182V34.6855H39.0121V38.8408H39.4076L40.8969 36.7217ZM52.1695 37.7129C51.8017 37.7129 51.5136 37.848 51.3053 38.1182C51.1002 38.3851 50.9977 38.8001 50.9977 39.3633C50.9977 39.9264 51.1002 40.3431 51.3053 40.6133C51.5103 40.8835 51.7984 41.0186 52.1695 41.0186C52.5406 41.0186 52.8287 40.8835 53.0338 40.6133C53.2389 40.3431 53.3414 39.9264 53.3414 39.3633C53.3414 38.8001 53.2372 38.3851 53.0289 38.1182C52.8238 37.848 52.5374 37.7129 52.1695 37.7129ZM52.1695 36.6777C52.9703 36.6777 53.5823 36.9154 54.0055 37.3906C54.4286 37.8626 54.6402 38.5202 54.6402 39.3633C54.6402 40.2064 54.427 40.8656 54.0006 41.3408C53.5742 41.8161 52.9638 42.0537 52.1695 42.0537C51.3753 42.0537 50.7633 41.8161 50.3336 41.3408C49.9072 40.8623 49.6939 40.2031 49.6939 39.3633C49.6939 38.5202 49.9055 37.8626 50.3287 37.3906C50.7551 36.9154 51.3687 36.6777 52.1695 36.6777ZM64.6336 37.7129C64.2658 37.7129 63.9777 37.848 63.7693 38.1182C63.5643 38.3851 63.4617 38.8001 63.4617 39.3633C63.4617 39.9264 63.5643 40.3431 63.7693 40.6133C63.9744 40.8835 64.2625 41.0186 64.6336 41.0186C65.0047 41.0186 65.2928 40.8835 65.4978 40.6133C65.7029 40.3431 65.8055 39.9264 65.8055 39.3633C65.8055 38.8001 65.7013 38.3851 65.493 38.1182C65.2879 37.848 65.0014 37.7129 64.6336 37.7129ZM64.6336 36.6777C65.4344 36.6777 66.0464 36.9154 66.4695 37.3906C66.8927 37.8626 67.1043 38.5202 67.1043 39.3633C67.1043 40.2064 66.8911 40.8656 66.4646 41.3408C66.0382 41.8161 65.4279 42.0537 64.6336 42.0537C63.8393 42.0537 63.2273 41.8161 62.7977 41.3408C62.3712 40.8623 62.158 40.2031 62.158 39.3633C62.158 38.5202 62.3696 37.8626 62.7928 37.3906C63.2192 36.9154 63.8328 36.6777 64.6336 36.6777ZM76.2871 42H74.9883V34.6855H76.2871V42Z" fill="#FF6C63"/>
<path fill-rule="evenodd" clip-rule="evenodd" d="M93.7856 15.3761C93 17.6213 93 20.4142 93 26C93 31.5858 93 34.3787 93.7856 36.6239C95.1928 40.6454 98.3546 43.8072 102.376 45.2144C104.621 46 107.414 46 113 46C118.586 46 121.379 46 123.624 45.2144C127.645 43.8072 130.807 40.6454 132.214 36.6239C133 34.3787 133 31.5858 133 26C133 20.4142 133 17.6213 132.214 15.3761C130.807 11.3546 127.645 8.1928 123.624 6.78563C121.379 6 118.586 6 113 6C107.414 6 104.621 6 102.376 6.78563C98.3546 8.1928 95.1928 11.3546 93.7856 15.3761ZM122.637 36.2043C122.414 36.5607 122.366 37.0272 122.271 37.9601C122.026 40.368 121.903 41.5719 122.378 42.1508C122.675 42.5127 123.101 42.7448 123.566 42.7978C124.31 42.8827 125.255 42.1267 127.145 40.6147C127.249 40.5309 127.302 40.489 127.351 40.4434C127.383 40.4137 127.414 40.3829 127.443 40.351C127.489 40.302 127.531 40.2496 127.614 40.1448L127.615 40.1448C129.126 38.2548 129.882 37.3099 129.798 36.566C129.745 36.101 129.513 35.6749 129.151 35.3782C128.572 34.9034 127.368 35.026 124.96 35.2712C124.027 35.3662 123.561 35.4137 123.204 35.6377C122.975 35.7816 122.781 35.9752 122.637 36.2043Z" fill="#FF6C63"/>
<circle cx="110" cy="18" r="2" fill="white"/>
<circle cx="116" cy="18" r="2" fill="white"/>
<path d="M104 22C104 22 104.875 25.4839 109.25 27.2258C113.625 28.9677 117 28 117 28" stroke="white" stroke-width="2" stroke-linecap="round" stroke-linejoin="round"/>
</svg>
