<svg width="135" height="46" viewBox="0 0 135 46" fill="none" xmlns="http://www.w3.org/2000/svg">
<path d="M7.24414 25.3047C8.41602 25.3047 9.27865 25.0182 9.83203 24.4453C10.3919 23.8724 10.6719 23 10.6719 21.8281V8.81055H13.6797V21.8281C13.6797 23.8854 13.0872 25.4805 11.9023 26.6133C10.7174 27.7461 9.10938 28.3125 7.07812 28.3125C5.125 28.3125 3.63737 27.8242 2.61523 26.8477C1.59961 25.8776 1.0918 24.5723 1.0918 22.9316C1.0918 21.4798 1.42057 19.9206 2.07812 18.2539L4.72461 19.1914C4.26237 20.4935 4.03125 21.6068 4.03125 22.5312C4.03125 23.4102 4.29492 24.0905 4.82227 24.5723C5.34961 25.0605 6.1569 25.3047 7.24414 25.3047ZM21.043 19.9629C20.9583 19.0579 20.8021 18.3646 20.5742 17.8828C20.3529 17.401 20.0208 17.1602 19.5781 17.1602C19.1875 17.1602 18.888 17.3424 18.6797 17.707C18.4779 18.0716 18.377 18.5273 18.377 19.0742C18.377 19.4062 18.4746 19.6439 18.6699 19.7871C18.8717 19.9238 19.2005 19.9922 19.6562 19.9922C20.1771 19.9922 20.6393 19.9824 21.043 19.9629ZM20.6523 23H19.2656C18.1458 23 17.2799 22.6875 16.668 22.0625C16.056 21.4375 15.75 20.5358 15.75 19.3574C15.75 18.752 15.8281 18.1562 15.9844 17.5703C16.1471 16.9844 16.3783 16.4408 16.6777 15.9395C16.9837 15.4382 17.3939 15.0345 17.9082 14.7285C18.4225 14.416 18.9987 14.2598 19.6367 14.2598C22.1302 14.2598 23.5104 16.1706 23.7773 19.9922H24.5293V23H23.6602C23.3932 24.3281 22.6901 25.4609 21.5508 26.3984C20.4115 27.3424 18.8197 28.1367 16.7754 28.7812L15.4863 26.0566C16.834 25.653 17.9538 25.1908 18.8457 24.6699C19.7376 24.1491 20.3398 23.5924 20.6523 23ZM33.6406 7.38477L34.2559 10.3242C32.1465 10.8581 30.1445 11.6035 28.25 12.5605V12.6582C29.2266 13.485 30.0241 14.2695 30.6426 15.0117C31.2676 15.7539 31.7949 16.5547 32.2246 17.4141C32.6999 18.3711 33.1979 19.0417 33.7188 19.4258C34.2461 19.8034 34.9232 19.9922 35.75 19.9922V23C34.8125 23 33.9466 22.8014 33.1523 22.4043C32.3646 22.0072 31.7266 21.4375 31.2383 20.6953C30.8737 21.4375 30.2454 22.0072 29.3535 22.4043C28.4616 22.8014 27.3776 23 26.1016 23H24.5391C24.3958 23 24.2917 22.8828 24.2266 22.6484C24.1615 22.4141 24.1289 22.0267 24.1289 21.4863C24.1289 20.9525 24.1615 20.5716 24.2266 20.3438C24.2852 20.1094 24.3893 19.9922 24.5391 19.9922H26.043C27.0781 19.9922 27.8822 19.862 28.4551 19.6016C29.028 19.3411 29.3145 18.9733 29.3145 18.498C29.3145 17.9837 28.9434 17.3392 28.2012 16.5645C27.4655 15.7832 26.3034 14.8099 24.7148 13.6445V11.2031C27.6641 9.34115 30.6393 8.06836 33.6406 7.38477ZM47.4883 19.9922C47.8854 19.9922 48.1751 19.888 48.3574 19.6797C48.5397 19.4648 48.6309 19.1263 48.6309 18.6641C48.6309 18.2148 48.5104 17.2904 48.2695 15.8906L51.1797 15.2852L51.4141 16.9551C51.5117 17.6126 51.6159 18.1302 51.7266 18.5078C51.8372 18.8854 51.9967 19.1914 52.2051 19.4258C52.4134 19.6536 52.6543 19.8066 52.9277 19.8848C53.2012 19.9564 53.5723 19.9922 54.041 19.9922H54.0508V23H54.041C53.11 23 52.3548 22.8405 51.7754 22.5215C51.2025 22.196 50.8346 21.7337 50.6719 21.1348C50.5417 21.7207 50.2292 22.1797 49.7344 22.5117C49.2396 22.8372 48.6276 23 47.8984 23C47.1888 23 46.5931 22.8535 46.1113 22.5605C45.6361 22.2611 45.2975 21.8444 45.0957 21.3105C44.679 22.4368 43.7513 23 42.3125 23C40.8346 23 39.9102 22.4141 39.5391 21.2422C39.2591 21.7826 38.8099 22.2122 38.1914 22.5312C37.5794 22.8438 36.8893 23 36.1211 23H35.75C35.4766 23 35.3398 22.4857 35.3398 21.457C35.3398 20.9362 35.3724 20.5618 35.4375 20.334C35.5026 20.1061 35.6068 19.9922 35.75 19.9922H36.1211C36.8372 19.9922 37.3646 19.8424 37.7031 19.543C38.0417 19.237 38.2435 18.7292 38.3086 18.0195L38.4941 15.8613L41.502 16.0859L41.2969 18.4297C41.1992 19.4323 41.5638 19.9531 42.3906 19.9922C42.7812 20.0117 43.0807 19.9076 43.2891 19.6797C43.5039 19.4453 43.6341 19.0807 43.6797 18.5859L43.8555 16.3887L46.4727 16.5742L46.3359 18.5566C46.2578 19.5137 46.6419 19.9922 47.4883 19.9922ZM54.0508 19.9922H62.5664V23H54.0508C53.9076 23 53.8034 22.8926 53.7383 22.6777C53.6732 22.4629 53.6406 22.069 53.6406 21.4961C53.6406 20.9232 53.6732 20.5293 53.7383 20.3145C53.8034 20.0996 53.9076 19.9922 54.0508 19.9922ZM62.5664 19.9922H71.082V23H62.5664C62.4232 23 62.319 22.8926 62.2539 22.6777C62.1888 22.4629 62.1562 22.069 62.1562 21.4961C62.1562 20.9232 62.1888 20.5293 62.2539 20.3145C62.319 20.0996 62.4232 19.9922 62.5664 19.9922ZM75.7695 14.2793C76.1862 15.998 76.3945 17.3978 76.3945 18.4785C76.3945 19.9108 75.9941 21.0241 75.1934 21.8184C74.3991 22.6061 73.1523 23 71.4531 23H71.082C70.9388 23 70.8346 22.8926 70.7695 22.6777C70.7044 22.4629 70.6719 22.069 70.6719 21.4961C70.6719 20.9232 70.7044 20.5293 70.7695 20.3145C70.8346 20.0996 70.9388 19.9922 71.082 19.9922H71.4531C72.1497 19.9922 72.6543 19.8424 72.9668 19.543C73.2858 19.237 73.4453 18.7617 73.4453 18.1172C73.4453 17.5117 73.276 16.4896 72.9375 15.0508L75.7695 14.2793ZM73.3477 11.5742L75.2031 9.71875L77.0488 11.5742L75.2031 13.4199L73.3477 11.5742ZM69.9297 11.5742L71.7852 9.71875L73.6309 11.5742L71.7852 13.4199L69.9297 11.5742Z" fill="#151A23"/>
<path d="M5.04649 40H3.74277V35.8398H2.09238V34.7217H6.69688V35.8398H5.04649V40ZM16.7344 38.7988H14.7227L14.9766 38.0029H16.4902L16.7344 38.7988ZM14.4639 40H13.1357L14.9424 34.7217H16.4561L18.2822 40H16.9541L15.7041 35.9473L14.4639 40ZM25.268 38.3008H26.4008C26.4008 38.7923 26.7084 39.0381 27.3236 39.0381C27.5613 39.0381 27.7517 38.9974 27.8949 38.916C28.0414 38.8314 28.1147 38.6979 28.1147 38.5156C28.1147 38.4505 28.1049 38.3919 28.0854 38.3398C28.0691 38.2845 28.0365 38.2357 27.9877 38.1934C27.9421 38.1478 27.8949 38.1104 27.8461 38.0811C27.8005 38.0485 27.7305 38.0143 27.6361 37.9785C27.545 37.9427 27.4636 37.9134 27.392 37.8906C27.3236 37.8678 27.2244 37.8369 27.0941 37.7979C26.9509 37.7555 26.8337 37.7197 26.7426 37.6904C26.6547 37.6611 26.544 37.6204 26.4105 37.5684C26.2771 37.513 26.168 37.4593 26.0834 37.4072C25.9988 37.3551 25.9076 37.2884 25.81 37.207C25.7123 37.1257 25.6358 37.041 25.5805 36.9531C25.5251 36.862 25.4779 36.7546 25.4389 36.6309C25.4031 36.5039 25.3852 36.3672 25.3852 36.2207C25.3852 35.7487 25.5544 35.3727 25.893 35.0928C26.2315 34.8128 26.6596 34.6729 27.1772 34.6729C27.7663 34.6729 28.2465 34.821 28.6176 35.1172C28.9919 35.4102 29.1791 35.8203 29.1791 36.3477L28.0414 36.3379C28.0414 36.1296 27.9682 35.9701 27.8217 35.8594C27.6785 35.7454 27.4913 35.6885 27.2602 35.6885C27.029 35.6885 26.8484 35.734 26.7182 35.8252C26.5912 35.9131 26.5277 36.0449 26.5277 36.2207C26.5277 36.3867 26.6026 36.5153 26.7523 36.6064C26.9053 36.6976 27.156 36.792 27.5043 36.8896C27.7126 36.9482 27.8835 37.0003 28.017 37.0459C28.1505 37.0915 28.3035 37.1582 28.476 37.2461C28.6518 37.334 28.7901 37.43 28.891 37.5342C28.9919 37.6383 29.0782 37.7734 29.1498 37.9395C29.2214 38.1022 29.2572 38.2861 29.2572 38.4912C29.2572 38.9827 29.0766 39.3652 28.7152 39.6387C28.3572 39.9121 27.9047 40.0488 27.3578 40.0488C26.7263 40.0488 26.2201 39.9023 25.8393 39.6094C25.4584 39.3132 25.268 38.877 25.268 38.3008ZM36.8289 34.7217H38.1277V36.8652L39.9148 34.7217H41.4383L39.285 37.373L41.4432 40H39.9197L38.5232 38.2861L38.1277 38.7451V40H36.8289V34.7217ZM50.9045 34.6729C51.3114 34.6729 51.6678 34.738 51.9738 34.8682C52.2831 34.9984 52.5321 35.1839 52.7209 35.4248C52.913 35.6657 53.0562 35.9489 53.1506 36.2744C53.245 36.5967 53.2922 36.9596 53.2922 37.3633C53.2922 38.1901 53.0936 38.846 52.6965 39.3311C52.2994 39.8128 51.702 40.0537 50.9045 40.0537C50.107 40.0537 49.508 39.8128 49.1076 39.3311C48.7072 38.846 48.507 38.1901 48.507 37.3633C48.507 36.5365 48.7056 35.8822 49.1027 35.4004C49.5031 34.9154 50.1037 34.6729 50.9045 34.6729ZM50.9045 35.7129C50.5171 35.7129 50.2193 35.8561 50.0109 36.1426C49.8026 36.429 49.6984 36.8359 49.6984 37.3633C49.6984 37.8939 49.801 38.3024 50.0061 38.5889C50.2144 38.8753 50.5139 39.0186 50.9045 39.0186C51.2919 39.0186 51.5881 38.8753 51.7932 38.5889C52.0015 38.3024 52.1057 37.8939 52.1057 37.3633C52.1057 36.8359 52.0015 36.429 51.7932 36.1426C51.5881 35.8561 51.2919 35.7129 50.9045 35.7129ZM62.9928 34.6729C63.3997 34.6729 63.7561 34.738 64.0621 34.8682C64.3714 34.9984 64.6204 35.1839 64.8092 35.4248C65.0012 35.6657 65.1445 35.9489 65.2389 36.2744C65.3333 36.5967 65.3805 36.9596 65.3805 37.3633C65.3805 38.1901 65.1819 38.846 64.7848 39.3311C64.3876 39.8128 63.7903 40.0537 62.9928 40.0537C62.1952 40.0537 61.5963 39.8128 61.1959 39.3311C60.7955 38.846 60.5953 38.1901 60.5953 37.3633C60.5953 36.5365 60.7939 35.8822 61.191 35.4004C61.5914 34.9154 62.192 34.6729 62.9928 34.6729ZM62.9928 35.7129C62.6054 35.7129 62.3076 35.8561 62.0992 36.1426C61.8909 36.429 61.7867 36.8359 61.7867 37.3633C61.7867 37.8939 61.8893 38.3024 62.0943 38.5889C62.3027 38.8753 62.6021 39.0186 62.9928 39.0186C63.3801 39.0186 63.6764 38.8753 63.8814 38.5889C64.0898 38.3024 64.1939 37.8939 64.1939 37.3633C64.1939 36.8359 64.0898 36.429 63.8814 36.1426C63.6764 35.8561 63.3801 35.7129 62.9928 35.7129ZM73.1084 34.7217H74.4023V38.9551H76.7559V40H73.1084V34.7217Z" fill="#FF6C63"/>
<path fill-rule="evenodd" clip-rule="evenodd" d="M94.4858 11.4667C93.4546 13.9078 93.3031 16.9386 93 23C93.3031 29.0614 93.4546 32.0922 94.4858 34.5333C96.0056 38.1312 98.8688 40.9944 102.467 42.5142C104.908 43.5454 107.939 43.6969 114 44H114H114C120.061 43.6969 123.092 43.5454 125.533 42.5142C129.131 40.9944 131.994 38.1312 133.514 34.5333C134.545 32.0922 134.697 29.0615 135 23V23V23C134.697 16.9385 134.545 13.9078 133.514 11.4667C131.994 7.86881 129.131 5.00558 125.533 3.48577C123.092 2.45461 120.061 2.30307 114 2C107.939 2.30307 104.908 2.45461 102.467 3.48577C98.8688 5.00558 96.0056 7.86881 94.4858 11.4667ZM123.637 33.2044C123.414 33.5608 123.366 34.0272 123.271 34.9601C123.026 37.368 122.903 38.572 123.378 39.1509C123.675 39.5128 124.101 39.7448 124.566 39.7979C125.31 39.8827 126.255 39.1267 128.145 37.6148C128.249 37.5309 128.302 37.489 128.351 37.4435C128.383 37.4138 128.413 37.3829 128.443 37.351C128.489 37.302 128.531 37.2496 128.614 37.1449L128.614 37.1448C130.126 35.2549 130.882 34.3099 130.798 33.5661C130.745 33.1011 130.512 32.675 130.151 32.3782C129.572 31.9035 128.368 32.0261 125.96 32.2713H125.96C125.027 32.3663 124.561 32.4138 124.204 32.6377C123.975 32.7816 123.781 32.9753 123.637 33.2044Z" fill="#FF6C63"/>
<circle cx="110" cy="15" r="2" fill="white"/>
<circle cx="118" cy="15" r="2" fill="white"/>
<path d="M105 20C105 20 105.808 23.3349 109.846 25.0023C113.885 26.6697 117 25.7434 117 25.7434" stroke="white" stroke-width="2" stroke-linecap="round" stroke-linejoin="round"/>
</svg>
